HIERARCHY
ROOT Hips
{
 OFFSET 0.000000 0.000000 0.000000
 CHANNELS 6 Xposition Yposition Zposition Yrotation Xrotation Zrotation
 JOINT Chest
 {
  OFFSET 0.000000 9.585900 0.002600
  CHANNELS 3 Yrotation Xrotation Zrotation
  JOINT Chest2
  {
   OFFSET 0.000000 9.601200 -0.005300
   CHANNELS 3 Yrotation Xrotation Zrotation
   JOINT Chest3
   {
    OFFSET 0.000000 9.561800 0.000000
    CHANNELS 3 Yrotation Xrotation Zrotation
    JOINT Chest4
    {
     OFFSET 0.000000 9.552100 0.000000
     CHANNELS 3 Yrotation Xrotation Zrotation
     JOINT Neck
     {
      OFFSET 0.000000 14.453000 0.000000
      CHANNELS 3 Yrotation Xrotation Zrotation
      JOINT Head
      {
       OFFSET 0.000000 8.936500 -0.011300
       CHANNELS 3 Yrotation Xrotation Zrotation
       End Site
       {
        OFFSET 0.000000 17.073600 -0.006000
       }
      }
     }
     JOINT RightCollar
     {
      OFFSET -2.921100 9.558500 0.000000
      CHANNELS 3 Yrotation Xrotation Zrotation
      JOINT RightShoulder
      {
       OFFSET -13.519700 0.000000 0.000000
       CHANNELS 3 Yrotation Xrotation Zrotation
       JOINT RightElbow
       {
        OFFSET 0.000000 -29.696600 0.000000
        CHANNELS 3 Yrotation Xrotation Zrotation
        JOINT RightWrist
        {
         OFFSET 0.000000 -24.004700 0.000000
         CHANNELS 3 Yrotation Xrotation Zrotation
         End Site
         {
          OFFSET 0.000000 -17.728500 0.000000
         }
        }
       }
      }
     }
     JOINT LeftCollar
     {
      OFFSET 2.921100 9.558500 0.000000
      CHANNELS 3 Yrotation Xrotation Zrotation
      JOINT LeftShoulder
      {
       OFFSET 13.519700 0.000000 0.000000
       CHANNELS 3 Yrotation Xrotation Zrotation
       JOINT LeftElbow
       {
        OFFSET 0.000000 -29.696600 0.000000
        CHANNELS 3 Yrotation Xrotation Zrotation
        JOINT LeftWrist
        {
         OFFSET 0.000000 -24.004700 0.000000
         CHANNELS 3 Yrotation Xrotation Zrotation
         End Site
         {
          OFFSET 0.000000 -17.728500 0.000000
         }
        }
       }
      }
     }
    }
   }
  }
 }
 JOINT RightHip
 {
  OFFSET -7.771700 -0.012900 -0.001300
  CHANNELS 3 Yrotation Xrotation Zrotation
  JOINT RightKnee
  {
   OFFSET 0.000000 -40.869800 0.001200
   CHANNELS 3 Yrotation Xrotation Zrotation
   JOINT RightAnkle
   {
    OFFSET 0.000000 -39.717900 0.002100
    CHANNELS 3 Yrotation Xrotation Zrotation
    JOINT RightToe
    {
     OFFSET 0.000000 -4.965400 11.033500
     CHANNELS 3 Yrotation Xrotation Zrotation
     End Site
     {
      OFFSET 0.000000 -1.423100 5.872300
     }
    }
   }
  }
 }
 JOINT LeftHip
 {
  OFFSET 7.771700 -0.012900 -0.001300
  CHANNELS 3 Yrotation Xrotation Zrotation
  JOINT LeftKnee
  {
   OFFSET 0.000000 -40.869800 0.001200
   CHANNELS 3 Yrotation Xrotation Zrotation
   JOINT LeftAnkle
   {
    OFFSET 0.000000 -39.717900 0.002100
    CHANNELS 3 Yrotation Xrotation Zrotation
    JOINT LeftToe
    {
     OFFSET 0.000000 -4.965400 11.033500
     CHANNELS 3 Yrotation Xrotation Zrotation
     End Site
     {
      OFFSET 0.000000 -1.423100 5.872300
     }
    }
   }
  }
 }
}
MOTION
Frames: 13
Frame Time: 0.008333
-96.036862 51.500822 -34.518158 175.638505 -20.856857 0.046770 -0.377547 10.272037 0.947326 -0.031213 0.641999 0.102284 -0.055999 1.106332 0.179467 -0.346601 9.507103 1.490204 0.583778 19.525589 -1.573507 0.974394 -5.065586 -1.794967 4.612023 15.380903 13.862420 28.536843 -3.316463 -31.012474 99.294675 -63.502892 -142.952366 0.900891 3.103991 9.793908 -7.680363 14.238720 -15.237490 -33.380087 0.740435 30.514337 -61.686379 -70.708519 108.141813 10.135099 1.895222 5.472991 -14.344902 -61.744005 10.200470 -91.006591 82.028229 -99.618897 -5.338129 -11.540960 7.783028 0.339413 -0.884024 0.159505 15.179125 -59.778968 -11.065491 28.310456 84.015066 35.130414 -2.586088 -10.866553 1.006594 0.205329 0.555039 0.092612
-96.035496 51.500919 -34.518730 175.636645 -20.862919 0.046061 -0.373810 10.277621 0.945430 -0.031122 0.642049 0.102126 -0.054174 1.108937 0.180356 -0.347689 9.506335 1.490619 0.583397 19.523879 -1.573108 0.976865 -5.066890 -1.795921 4.610155 15.380518 13.862914 28.532459 -3.312699 -31.043223 99.315122 -63.515419 -142.977271 0.903895 3.098926 9.798091 -7.688032 14.228169 -15.243736 -33.373476 0.749901 30.520112 -61.803327 -70.712314 108.244311 10.127365 1.916256 5.485487 -14.340452 -61.737522 10.204355 -90.997001 82.021308 -99.609298 -5.340740 -11.534062 7.777651 0.336137 -0.883773 0.161048 15.178109 -59.773051 -11.059201 28.296852 84.017770 35.117923 -2.585968 -10.871800 1.007784 0.203484 0.558522 0.091398
-96.033982 51.500897 -34.519062 175.636181 -20.866564 0.043909 -0.372282 10.280773 0.945922 -0.030255 0.642365 0.100561 -0.054701 1.107467 0.179571 -0.346409 9.506750 1.489454 0.583759 19.524207 -1.569966 0.977965 -5.070390 -1.802151 4.610031 15.384966 13.864725 28.533500 -3.316844 -31.049767 99.316111 -63.505565 -142.983973 0.906686 3.100772 9.803562 -7.692041 14.228869 -15.244844 -33.374616 0.749430 30.530656 -61.832594 -70.714768 108.267770 10.126831 1.908862 5.486855 -14.339053 -61.735385 10.213583 -91.006074 82.012510 -99.618332 -5.348421 -11.519889 7.772187 0.347895 -0.892528 0.166741 15.179353 -59.769846 -11.056629 28.264610 84.020726 35.090174 -2.583066 -10.873925 1.006936 0.200559 0.560010 0.090675
-96.034124 51.500832 -34.519586 175.644266 -20.869553 0.047986 -0.380167 10.283571 0.937133 -0.030309 0.642782 0.100946 -0.053184 1.107641 0.175405 -0.347597 9.506626 1.486768 0.585877 19.521776 -1.568796 0.979041 -5.070761 -1.797941 4.615243 15.385126 13.870518 28.532076 -3.316588 -31.069882 99.324067 -63.510308 -143.000941 0.912520 3.105038 9.808379 -7.693122 14.228371 -15.245686 -33.377188 0.752750 30.544521 -61.847192 -70.717566 108.280405 10.129519 1.906610 5.497907 -14.326711 -61.734600 10.196572 -91.019089 82.006840 -99.632751 -5.344203 -11.517180 7.775829 0.345056 -0.893658 0.164239 15.185824 -59.764913 -11.071474 28.244506 84.020610 35.073050 -2.582865 -10.871893 1.005609 0.199938 0.559419 0.090786
-96.034203 51.500616 -34.519828 175.648034 -20.869851 0.051741 -0.382677 10.285141 0.930575 -0.031338 0.642114 0.101687 -0.053384 1.107630 0.175163 -0.353127 9.511087 1.479084 0.591706 19.514147 -1.565542 0.980914 -5.075129 -1.797698 4.624936 15.380590 13.880322 28.526204 -3.315115 -31.080988 99.333415 -63.504019 -143.012915 0.920422 3.108627 9.809135 -7.688089 14.226417 -15.239373 -33.377002 0.751109 30.548805 -61.899832 -70.711451 108.330724 10.134909 1.886310 5.498493 -14.315358 -61.735660 10.183016 -91.023481 82.003680 -99.636115 -5.341149 -11.515815 7.776990 0.343252 -0.894161 0.163118 15.194040 -59.763572 -11.083545 28.218919 84.022159 35.050612 -2.583099 -10.868833 1.003200 0.202970 0.557571 0.091933
-96.034022 51.500494 -34.520455 175.648822 -20.872161 0.053284 -0.384177 10.289127 0.928287 -0.031440 0.642223 0.101555 -0.055248 1.109640 0.175355 -0.351964 9.509110 1.478020 0.588038 19.510121 -1.571448 0.984754 -5.080946 -1.798021 4.627208 15.378227 13.881421 28.514893 -3.313511 -31.091048 99.354852 -63.506644 -143.029804 0.932359 3.104362 9.807699 -7.694019 14.223828 -15.237374 -33.371966 0.747719 30.548091 -61.952686 -70.704086 108.381115 10.133826 1.889522 5.499343 -14.309777 -61.734213 10.176943 -91.025351 82.001761 -99.639507 -5.331008 -11.512457 7.780949 0.337274 -0.897060 0.158858 15.202237 -59.759779 -11.090561 28.275350 84.017176 35.112322 -2.595256 -10.871258 0.999036 0.206823 0.559779 0.094613
-96.035267 51.500684 -34.521929 175.652818 -20.879085 0.060361 -0.390908 10.297772 0.919945 -0.031546 0.642333 0.101418 -0.054836 1.108832 0.175242 -0.351829 9.509753 1.476609 0.586963 19.507895 -1.573069 0.982162 -5.089149 -1.809387 4.629334 15.375868 13.880765 28.508151 -3.313402 -31.093035 99.361471 -63.503061 -143.035680 0.940638 3.098445 9.805847 -7.702527 14.224233 -15.247430 -33.363738 0.749806 30.561860 -61.962255 -70.706550 108.389575 10.132822 1.877194 5.496845 -14.289626 -61.729907 10.153688 -91.042620 81.997042 -99.665157 -5.310335 -11.510568 7.794333 0.322682 -0.898887 0.151394 15.212458 -59.748485 -11.106021 28.357601 84.008768 35.198269 -2.610390 -10.873267 0.993865 0.213097 0.561571 0.097912
-96.036584 51.500374 -34.522026 175.655678 -20.877527 0.065489 -0.396047 10.295181 0.914075 -0.030561 0.643866 0.100179 -0.054796 1.108836 0.175933 -0.356065 9.511744 1.478006 0.588639 19.504912 -1.578675 0.984240 -5.089540 -1.809041 4.639943 15.368561 13.873070 28.493314 -3.312706 -31.089401 99.379431 -63.489129 -143.044279 0.936955 3.108428 9.798143 -7.702564 14.223141 -15.254821 -33.367104 0.750539 30.570629 -62.014878 -70.701729 108.438300 10.136635 1.885194 5.503593 -14.276708 -61.733357 10.139191 -91.043237 81.993518 -99.667496 -5.304973 -11.509481 7.798309 0.315578 -0.894790 0.148943 15.227268 -59.744633 -11.124526 28.356566 84.002474 35.201974 -2.612253 -10.878314 0.987442 0.213815 0.568038 0.102607
-96.038482 51.500022 -34.521886 175.659266 -20.874797 0.071944 -0.397636 10.292950 0.903120 -0.031709 0.643568 0.101418 -0.056296 1.109549 0.178104 -0.355643 9.517107 1.473803 0.588546 19.498472 -1.585436 0.983600 -5.094763 -1.806281 4.644918 15.359953 13.874722 28.473616 -3.307274 -31.098682 99.424723 -63.487634 -143.078925 0.935980 3.115000 9.789527 -7.706076 14.218176 -15.253440 -33.368166 0.752423 30.577511 -62.069358 -70.700970 108.493179 10.138878 1.893071 5.505433 -14.265553 -61.738364 10.124025 -91.043528 81.992530 -99.667849 -5.314045 -11.508474 7.804438 0.324463 -0.892707 0.145324 15.240113 -59.744110 -11.142124 28.338265 83.999709 35.184189 -2.613662 -10.876538 0.985433 0.214978 0.568423 0.104198
-96.039556 51.499824 -34.521896 175.659335 -20.874147 0.073660 -0.396902 10.291932 0.900258 -0.029345 0.644273 0.100793 -0.057428 1.110166 0.175872 -0.354952 9.518269 1.475961 0.589705 19.496551 -1.586642 0.980465 -5.099532 -1.810185 4.645386 15.356961 13.876066 28.462736 -3.301451 -31.104556 99.470721 -63.480068 -143.115439 0.937879 3.114358 9.782697 -7.711441 14.216274 -15.253899 -33.382644 0.756536 30.585007 -62.068837 -70.702982 108.507022 10.138463 1.895864 5.504459 -14.260656 -61.740877 10.116429 -91.053266 81.995856 -99.677687 -5.304160 -11.505031 7.806972 0.316421 -0.896822 0.141873 15.241412 -59.745053 -11.142804 28.324241 84.000130 35.168638 -2.614983 -10.874376 0.983167 0.217502 0.567317 0.105961
-96.040590 51.499966 -34.522532 175.665918 -20.878207 0.072615 -0.402026 10.295494 0.898636 -0.025930 0.646333 0.100189 -0.053544 1.111484 0.174916 -0.350952 9.523317 1.476584 0.582309 19.488581 -1.584709 0.977865 -5.103899 -1.812811 4.635140 15.348324 13.879121 28.453402 -3.292514 -31.113046 99.504235 -63.472869 -143.147437 0.949936 3.106990 9.776254 -7.725729 14.208325 -15.249342 -33.382265 0.755814 30.586176 -62.110259 -70.703152 108.543804 10.134977 1.907527 5.510585 -14.261517 -61.736073 10.108827 -91.056423 81.997204 -99.679607 -5.304219 -11.506475 7.808972 0.312874 -0.895770 0.139377 15.232461 -59.741640 -11.139371 28.312904 83.999878 35.155816 -2.618035 -10.871554 0.980857 0.219002 0.566001 0.106817
-96.040935 51.500042 -34.522676 175.680932 -20.880070 0.064256 -0.409003 10.299298 0.901051 -0.029915 0.645439 0.101508 -0.052897 1.112254 0.174798 -0.351139 9.524299 1.475927 0.580924 19.485984 -1.583939 0.979001 -5.112430 -1.812482 4.632919 15.346481 13.871851 28.446786 -3.283651 -31.115872 99.533659 -63.462385 -143.181875 0.944837 3.115047 9.776865 -7.727546 14.205301 -15.244800 -33.391967 0.758254 30.586236 -62.176860 -70.710905 108.598043 10.130736 1.910604 5.522428 -14.286517 -61.728868 10.119128 -91.041511 81.997753 -99.666548 -5.306286 -11.511516 7.807595 0.312657 -0.891291 0.139989 15.209661 -59.741416 -11.128827 28.294090 83.998031 35.134653 -2.617781 -10.870794 0.980347 0.220898 0.568146 0.104274
-96.041082 51.500572 -34.523734 175.683592 -20.888375 0.059710 -0.413227 10.311709 0.902483 -0.026108 0.642536 0.103109 -0.058369 1.114499 0.172809 -0.346548 9.521815 1.477483 0.579488 19.485501 -1.584094 0.981380 -5.115882 -1.811621 4.625009 15.350134 13.861183 28.446700 -3.274190 -31.119426 99.568667 -63.451392 -143.220871 0.939754 3.121959 9.776833 -7.722477 14.204742 -15.242222 -33.404906 0.765238 30.590650 -62.177231 -70.717918 108.605339 10.138600 1.877964 5.502496 -14.292459 -61.718382 10.123597 -91.046010 82.002075 -99.670461 -5.313296 -11.508463 7.805511 0.318862 -0.893280 0.141739 15.194982 -59.734249 -11.114463 28.306665 83.998309 35.145369 -2.616338 -10.875708 0.978980 0.218532 0.570979 0.104760
